<svg width="0" height="0" class="hidden">
  <symbol fill="none" xmlns="http://www.w3.org/2000/svg" viewBox="0 0 17 17" id="tel">
    <g clip-path="url(#clip0_23748_426)">
      <path d="M2.25241 4.81643C0.750584 6.31823 0.750584 8.7618 2.25238 10.2636L3.05007 9.46592C1.98816 8.40402 1.98814 6.67613 3.0501 5.61417C4.11203 4.55224 5.83992 4.55224 6.90185 5.61414L7.69953 4.81646C6.19776 3.31463 3.75418 3.31466 2.25241 4.81643Z" fill="#6E9C9F"></path>
      <path d="M3.84127 6.39119C3.2091 7.02336 3.20907 8.05201 3.84124 8.68421L4.63895 7.88653C4.54578 7.79335 4.49446 7.66947 4.49446 7.53772C4.49446 7.40599 4.54581 7.2821 4.63898 7.18893C4.73215 7.09576 4.85603 7.04444 4.98776 7.04444C5.11952 7.04444 5.24343 7.09576 5.33658 7.18893L6.13426 6.39122C5.50209 5.75902 4.47344 5.75902 3.84127 6.39119Z" fill="#6E9C9F"></path>
      <path d="M13.7483 4.43513L11.8551 2.54848L7.92337 6.47367L9.44758 8.04781C9.19214 8.50125 8.6379 9.3699 7.69334 10.3145C6.74865 11.2592 5.87366 11.8197 5.41587 12.0792L3.87261 10.5556L0.0022583 14.4029L1.8851 16.2983C2.60485 17.0181 3.69998 17.2046 4.6102 16.7625C5.99921 16.0879 8.09546 14.8431 10.1943 12.7443C12.2931 10.6455 13.5379 8.54924 14.2125 7.16023C14.3723 6.83109 14.45 6.47787 14.45 6.12692C14.45 5.5072 14.2078 4.89464 13.7483 4.43513ZM13.1977 6.66732C12.5609 7.97846 11.3845 9.95865 9.39661 11.9466C7.40868 13.9345 5.42849 15.1109 4.11735 15.7477C3.63935 15.9799 3.06287 15.8806 2.6842 15.5019L1.59746 14.4079L3.87543 12.1436L5.19015 13.4415L5.5419 13.2849C5.59905 13.2595 6.95947 12.6438 8.49116 11.1121C10.0239 9.57947 10.6267 8.23054 10.6515 8.17386L10.8041 7.82683L9.50677 6.48705L11.8559 4.14178L12.9512 5.23327C13.3307 5.6133 13.4298 6.18952 13.1977 6.66732Z" fill="#6E9C9F"></path>
    </g>
    <defs>
      <clipPath id="clip0_23748_426">
        <rect width="17" height="17" fill="white"></rect>
      </clipPath>
    </defs>
  </symbol>
  <symbol fill="none" xmlns="http://www.w3.org/2000/svg" viewBox="0 0 24 24" id="bag">
    <path d="M23.8454 8.2243C23.7281 8.10906 23.5642 8.05442 23.4012 8.07624H17.0343V5.26295C17.0343 2.4826 14.7804 0.228699 12.0001 0.228699C9.21971 0.228699 6.96582 2.4826 6.96582 5.26295V8.07624H0.598861C0.421164 8.07624 0.243523 8.07624 0.154646 8.2243C0.0352739 8.33902 -0.0201042 8.5051 0.00659291 8.66851L2.22761 20.81C2.53789 22.5037 4.00034 23.7431 5.72199 23.7713H18.278C20.0046 23.7289 21.464 22.4797 21.7724 20.7804L23.9934 8.66851C24.0201 8.5051 23.9648 8.33902 23.8454 8.2243ZM8.1503 5.26295C8.1503 3.13682 9.87388 1.41324 12 1.41324C14.1261 1.41324 15.8497 3.13682 15.8497 5.26295V8.07624H8.1503V5.26295ZM20.5879 20.6323C20.3884 21.7547 19.4179 22.5759 18.278 22.5868H5.72199C4.58212 22.5759 3.61161 21.7547 3.41215 20.6323L1.30959 9.26078H22.6904L20.5879 20.6323Z" fill="black"></path>
    <path d="M16.4421 15.0354C16.7692 15.0354 17.0343 14.7702 17.0343 14.4431V12.6663C17.0343 12.3392 16.7692 12.074 16.4421 12.074C16.1149 12.074 15.8498 12.3392 15.8498 12.6663V14.4431C15.8497 14.7702 16.1149 15.0354 16.4421 15.0354Z" fill="black"></path>
    <path d="M7.55803 15.0354C7.88514 15.0354 8.1503 14.7702 8.1503 14.4431V12.6663C8.1503 12.3392 7.88514 12.074 7.55803 12.074C7.23092 12.074 6.96576 12.3392 6.96576 12.6663V14.4431C6.96576 14.7702 7.23092 15.0354 7.55803 15.0354Z" fill="black"></path>
  </symbol>
  <symbol fill="none" xmlns="http://www.w3.org/2000/svg" viewBox="0 0 16 29" id="arrow-down">
    <path d="M8 0V14V28M8 28L1 20.8108M8 28L15 20.8108" stroke="#6E9C9F"></path>
  </symbol>
  <symbol fill="none" xmlns="http://www.w3.org/2000/svg" viewBox="0 0 21 21" id="fb">
    <g clip-path="url(#clip0_4_303)">
      <path d="M18.5391 0H2.46094C1.1039 0 0 1.1039 0 2.46094V18.5391C0 19.8961 1.1039 21 2.46094 21H18.5391C19.8961 21 21 19.8961 21 18.5391V2.46094C21 1.1039 19.8961 0 18.5391 0ZM19.3594 18.5391C19.3594 18.9914 18.9914 19.3594 18.5391 19.3594H13.6992V13.3711H16.3253L16.6314 10.8281H13.6992V8.08008C13.6992 7.37865 14.2283 6.84961 14.9297 6.84961H16.7754V4.4707C16.2896 4.40213 15.3525 4.30664 14.9297 4.30664C13.973 4.30664 13.0141 4.71023 12.2989 5.41374C11.5621 6.13857 11.1562 7.08801 11.1562 8.08729V10.8281H8.49023V13.3711H11.1562V19.3594H2.46094C2.00864 19.3594 1.64062 18.9914 1.64062 18.5391V2.46094C1.64062 2.00864 2.00864 1.64062 2.46094 1.64062H18.5391C18.9914 1.64062 19.3594 2.00864 19.3594 2.46094V18.5391Z" fill="black"></path>
    </g>
    <defs>
      <clipPath id="clip0_4_303">
        <rect width="21" height="21" fill="white"></rect>
      </clipPath>
    </defs>
  </symbol>
  <symbol fill="none" xmlns="http://www.w3.org/2000/svg" viewBox="0 0 22 23" id="insta">
    <g clip-path="url(#clip0_4_278)">
      <path d="M15.6094 0.5H6.39066C2.86683 0.5 0 3.36683 0 6.89066V16.1093C0 19.6332 2.86683 22.5 6.39066 22.5H15.6093C19.1332 22.5 22 19.6332 22 16.1094V6.89066C22 3.36683 19.1332 0.5 15.6094 0.5ZM20.2812 16.1093C20.2812 18.6854 18.1854 20.7812 15.6094 20.7812H6.39066C3.81455 20.7812 1.71875 18.6854 1.71875 16.1094V6.89066C1.71875 4.31455 3.81455 2.21875 6.39066 2.21875H15.6093C18.1854 2.21875 20.2812 4.31455 20.2812 6.89066V16.1093Z" fill="black"></path>
      <path d="M11 5.57031C7.73034 5.57031 5.07031 8.23034 5.07031 11.5C5.07031 14.7697 7.73034 17.4297 11 17.4297C14.2697 17.4297 16.9297 14.7697 16.9297 11.5C16.9297 8.23034 14.2697 5.57031 11 5.57031ZM11 15.7109C8.6781 15.7109 6.78906 13.8219 6.78906 11.5C6.78906 9.1781 8.6781 7.28906 11 7.28906C13.3219 7.28906 15.2109 9.1781 15.2109 11.5C15.2109 13.8219 13.3219 15.7109 11 15.7109Z" fill="black"></path>
      <path d="M17.0156 6.34375C17.4902 6.34375 17.875 5.95899 17.875 5.48438C17.875 5.00976 17.4902 4.625 17.0156 4.625C16.541 4.625 16.1562 5.00976 16.1562 5.48438C16.1562 5.95899 16.541 6.34375 17.0156 6.34375Z" fill="black"></path>
    </g>
    <defs>
      <clipPath id="clip0_4_278">
        <rect width="22" height="22" fill="white" transform="translate(0 0.5)"></rect>
      </clipPath>
    </defs>
  </symbol>
  <symbol fill="none" xmlns="http://www.w3.org/2000/svg" viewBox="0 0 23 23" id="twitter">
    <path d="M20.2712 5.16525L20.2598 5.12109C21.2343 4.53688 22.0211 3.5738 22.3711 2.4707C21.4584 3.01367 20.3904 3.42561 19.3164 3.63867C18.4552 2.7211 17.3061 2.15625 15.9473 2.15625C13.3429 2.15625 11.1855 4.26475 11.1855 6.87305C11.1855 7.24419 11.238 7.60752 11.3203 7.95117V7.99609C7.43875 7.77436 3.92429 5.80031 1.61719 2.96484C1.21231 3.66248 0.988281 4.65939 0.988281 5.52539C0.988281 6.87305 1.78852 8.67805 3.05469 9.52344V9.61328C2.29865 9.58278 1.52429 9.06195 0.898438 8.71484C0.898438 8.73546 0.92584 8.76026 0.92584 8.78088C0.92584 11.0696 2.6034 13.0436 4.76172 13.4766C4.38559 13.5761 3.85582 13.6562 3.45898 13.6562C3.15361 13.6562 2.84877 13.5765 2.56055 13.5215C3.16102 15.3978 4.89648 16.6211 6.96289 16.6211V16.666C5.35446 17.913 3.31577 18.7773 1.12305 18.7773C0.742154 18.7773 0.269531 18.7324 0 18.6875C2.08622 20.0277 4.56631 20.8438 7.23242 20.8438C15.9102 20.8438 20.6641 13.7012 20.6641 7.45703V6.82812C21.5871 6.16144 22.3686 5.26098 23 4.3125C23 4.3125 21.3439 5.09724 20.2712 5.16525ZM18.8672 7.45703C18.8672 8.80523 18.6031 10.221 18.1035 11.5512C17.5785 12.9492 16.8227 14.2107 15.8574 15.3005C14.3434 17.0096 11.6181 19.0469 7.23242 19.0469C7.10354 19.0469 6.97488 19.0446 6.84623 19.0402C7.26966 18.7945 7.67661 18.5211 8.06384 18.2209L8.75977 17.6814V16.8008V16.6211V14.8242L8.0195 14.816C7.21005 14.807 6.55859 14.1483 6.55859 13.3388V11.8696L5.58689 11.6502C5.1569 11.5531 4.85156 11.1711 4.85156 10.7303V9.61328V9.47852L4.8291 8.5626L4.02999 8.02907C3.6849 7.73874 3.37215 7.32406 3.14934 6.87529C5.50724 8.59481 8.30758 9.62379 11.2178 9.79005L13.1172 9.89854V7.99609V7.95117V7.73892L13.0677 7.5325C13.0111 7.29626 12.9824 7.07439 12.9824 6.87305C12.9824 6.09931 13.2911 5.3687 13.8517 4.81576C14.4156 4.25949 15.1598 3.95312 15.9473 3.95312C16.7434 3.95312 17.4362 4.26106 18.0063 4.86841L18.4647 5.35684L18.5202 5.57112L18.5316 5.61528L18.8672 6.91262V7.45703Z" fill="black"></path>
  </symbol>
  <symbol fill="none" xmlns="http://www.w3.org/2000/svg" viewBox="0 0 32 24" id="arrow-right">
    <path d="M0 12H31M31 12L20.186 1M31 12L20.186 23" stroke="white"></path>
  </symbol>
  <symbol fill="none" xmlns="http://www.w3.org/2000/svg" viewBox="0 0 29 16" id="l-arrow-team">
    <path d="M29 8L0.999999 8M0.999999 8L8.18919 0.999999M0.999999 8L8.18919 15" stroke="black"></path>
  </symbol>
  <symbol fill="none" xmlns="http://www.w3.org/2000/svg" viewBox="0 0 29 16" id="r-arrow-team">
    <path d="M8.34742e-08 8L28 8M28 8L20.8108 15M28 8L20.8108 1" stroke="black"></path>
  </symbol>
</svg>